<?xml version="1.0" standalone="no"?>
<!DOCTYPE svg PUBLIC "-//W3C//DTD SVG 20010904//EN"
 "http://www.w3.org/TR/2001/REC-SVG-20010904/DTD/svg10.dtd">
<svg version="1.0" xmlns="http://www.w3.org/2000/svg"
 width="64.000000pt" height="64.000000pt" viewBox="0 0 64.000000 64.000000"
 preserveAspectRatio="xMidYMid meet">
<metadata>
Created by potrace 1.10, written by Peter Selinger 2001-2011
</metadata>
<g transform="translate(0.000000,64.000000) scale(0.100000,-0.100000)"
fill="#c59d5f" stroke="none">
<path d="M220 540 c-11 -11 -29 -20 -39 -20 -11 0 -30 -13 -44 -30 -23 -26
-28 -28 -58 -20 -19 6 -36 10 -38 10 -11 0 13 -135 37 -208 32 -97 63 -139
124 -169 64 -32 177 -32 238 0 58 30 99 84 116 149 7 29 20 78 29 108 8 30 15
70 15 88 l0 35 -47 -6 c-45 -5 -48 -4 -89 42 l-42 46 -42 -40 c-22 -22 -43
-50 -46 -61 -4 -15 -16 -24 -38 -28 -18 -4 -43 -17 -55 -30 l-22 -23 -30 30
c-39 38 -35 63 9 59 27 -2 34 2 42 23 12 31 23 32 42 3 15 -22 38 -18 38 8 0
21 -37 54 -60 54 -11 0 -29 -9 -40 -20z m227 -58 l21 -29 -32 -25 c-29 -23
-33 -24 -53 -11 -19 13 -21 19 -11 37 13 26 39 56 48 56 3 0 16 -13 27 -28z
m108 -78 c-15 -81 -18 -84 -90 -84 l-66 0 18 31 c19 33 55 63 94 78 45 18 52
14 44 -25z m-436 11 c30 -15 81 -70 81 -86 0 -5 -22 -9 -49 -9 l-49 0 -11 44
c-18 73 -17 75 28 51z m245 -28 c15 -11 16 -17 5 -40 -11 -25 -17 -27 -71 -27
-66 0 -75 14 -33 55 27 28 71 33 99 12z m156 -119 c0 -34 -45 -100 -84 -123
-61 -36 -171 -36 -232 0 -39 23 -84 89 -84 123 0 9 53 12 200 12 147 0 200 -3
200 -12z"/>
</g>
</svg>
