<?xml version="1.0" standalone="no"?>
<!DOCTYPE svg PUBLIC "-//W3C//DTD SVG 20010904//EN"
 "http://www.w3.org/TR/2001/REC-SVG-20010904/DTD/svg10.dtd">
<svg version="1.0" xmlns="http://www.w3.org/2000/svg"
 width="64.000000pt" height="64.000000pt" viewBox="0 0 64.000000 64.000000"
 preserveAspectRatio="xMidYMid meet">

<g transform="translate(0.000000,64.000000) scale(0.100000,-0.100000)"
fill="#c59d5f" stroke="none">
<path d="M155 591 c-74 -33 -96 -133 -41 -190 33 -35 81 -48 123 -34 27 10 30
7 75 -61 43 -64 48 -77 48 -128 l0 -58 -40 0 c-33 0 -40 -3 -40 -20 0 -19 7
-20 100 -20 93 0 100 1 100 20 0 17 -7 20 -40 20 l-40 0 0 58 c0 55 3 62 80
177 44 66 80 130 80 143 0 22 -2 22 -120 22 l-120 0 -32 36 c-35 37 -92 53
-133 35z m86 -51 l24 -19 -32 -1 c-27 0 -33 -4 -33 -22 0 -13 9 -36 20 -53 14
-22 16 -31 7 -37 -41 -26 -107 18 -107 72 0 38 39 80 73 80 14 0 35 -9 48 -20z
m269 -68 c0 -22 -29 -32 -97 -32 -70 0 -73 -1 -61 -20 9 -14 26 -20 60 -22
l48 -3 -38 -57 c-20 -32 -39 -58 -42 -58 -5 0 -122 174 -128 191 -2 5 55 9
127 9 72 0 131 -4 131 -8z"/>
</g>
</svg>
