<?xml version="1.0" standalone="no"?>
<!DOCTYPE svg PUBLIC "-//W3C//DTD SVG 20010904//EN"
 "http://www.w3.org/TR/2001/REC-SVG-20010904/DTD/svg10.dtd">
<svg version="1.0" xmlns="http://www.w3.org/2000/svg"
 width="64.000000pt" height="64.000000pt" viewBox="0 0 64.000000 64.000000"
 preserveAspectRatio="xMidYMid meet">

<g transform="translate(0.000000,64.000000) scale(0.100000,-0.100000)"
fill="#c59d5f" stroke="none">
<path d="M125 575 c-33 -32 -33 -78 0 -110 49 -50 135 -15 135 55 0 41 -39 80
-80 80 -19 0 -40 -9 -55 -25z m95 -15 c11 -11 20 -29 20 -40 0 -26 -34 -60
-60 -60 -26 0 -60 34 -60 60 0 26 34 60 60 60 11 0 29 -9 40 -20z"/>
<path d="M386 563 c-46 -35 -66 -66 -66 -99 0 -15 4 -16 140 -16 157 0 152 -1
131 54 -13 34 -99 98 -131 98 -16 0 -47 -15 -74 -37z m105 7 c33 -18 21 -30
-31 -30 -51 0 -64 11 -32 29 22 13 39 13 63 1z m-111 -70 c0 -23 -4 -30 -20
-30 -24 0 -25 8 -4 38 20 29 24 28 24 -8z m200 -21 c0 -5 -9 -9 -20 -9 -16 0
-20 7 -20 33 l1 32 19 -24 c11 -13 20 -27 20 -32z m-60 31 c0 -17 -39 -50 -60
-50 -21 0 -60 33 -60 50 0 6 27 10 60 10 33 0 60 -4 60 -10z"/>
<path d="M87 403 c-8 -10 -25 -53 -38 -96 -20 -71 -21 -79 -7 -94 18 -18 36
-10 48 21 6 14 9 -15 9 -85 1 -84 4 -109 17 -120 30 -25 49 1 52 75 4 86 20
86 24 0 3 -74 22 -100 52 -75 13 11 16 35 16 120 0 92 2 103 13 81 7 -14 22
-25 32 -26 43 -2 45 -4 39 -34 -6 -26 -3 -30 14 -30 18 0 21 -7 24 -51 6 -95
68 -93 68 2 0 65 18 63 22 -2 6 -95 68 -93 68 2 0 46 2 49 26 49 23 0 25 3 20
26 -5 18 -2 32 10 45 16 18 16 23 -5 96 -31 108 -37 113 -131 113 -89 0 -102
-8 -121 -83 -7 -26 -16 -47 -19 -47 -3 0 -12 21 -19 47 -19 75 -32 83 -121 83
-61 0 -80 -4 -93 -17z m183 -29 c14 -35 13 -36 -10 -29 -19 6 -20 2 -20 -74
l0 -81 -60 0 c-57 0 -60 1 -60 25 0 23 3 25 50 25 28 0 50 5 50 10 0 6 -22 10
-50 10 l-50 0 0 46 c0 41 -2 45 -20 39 -23 -7 -24 -6 -10 29 9 25 13 26 90 26
77 0 81 -1 90 -26z m280 0 c6 -14 10 -33 10 -42 -1 -15 -2 -15 -15 2 -27 35
-27 9 -2 -83 l25 -91 -103 0 -102 0 18 92 c20 95 19 114 -6 82 -13 -17 -14
-17 -15 -2 0 9 4 28 10 42 9 25 13 26 90 26 77 0 81 -1 90 -26z m-464 -79
c-11 -44 -26 -78 -33 -72 -9 9 18 97 29 97 6 0 7 -11 4 -25z m214 -20 c14 -50
7 -74 -10 -31 -18 47 -22 76 -12 76 5 0 15 -20 22 -45z m58 -7 c-13 -40 -28
-59 -28 -36 0 26 18 68 29 68 6 0 6 -12 -1 -32z m222 6 c12 -32 13 -61 1 -49
-4 6 -13 25 -19 43 -13 39 4 45 18 6z m-430 -169 c0 -51 -3 -65 -15 -65 -12 0
-15 14 -15 65 0 51 3 65 15 65 12 0 15 -14 15 -65z m90 0 c0 -51 -3 -65 -15
-65 -12 0 -15 14 -15 65 0 51 3 65 15 65 12 0 15 -14 15 -65z m190 -15 c0 -38
-4 -50 -15 -50 -11 0 -15 12 -15 50 0 38 4 50 15 50 11 0 15 -12 15 -50z m90
0 c0 -38 -4 -50 -15 -50 -11 0 -15 12 -15 50 0 38 4 50 15 50 11 0 15 -12 15
-50z"/>
<path d="M400 200 c0 -11 5 -20 10 -20 6 0 10 9 10 20 0 11 -4 20 -10 20 -5 0
-10 -9 -10 -20z"/>
<path d="M450 200 c0 -11 5 -20 10 -20 6 0 10 9 10 20 0 11 -4 20 -10 20 -5 0
-10 -9 -10 -20z"/>
<path d="M500 200 c0 -11 5 -20 10 -20 6 0 10 9 10 20 0 11 -4 20 -10 20 -5 0
-10 -9 -10 -20z"/>
</g>
</svg>
