<?xml version="1.0" standalone="no"?>
<!DOCTYPE svg PUBLIC "-//W3C//DTD SVG 20010904//EN"
 "http://www.w3.org/TR/2001/REC-SVG-20010904/DTD/svg10.dtd">
<svg version="1.0" xmlns="http://www.w3.org/2000/svg"
 width="48.000000pt" height="48.000000pt" viewBox="0 0 48.000000 48.000000"
 preserveAspectRatio="xMidYMid meet">

<g transform="translate(0.000000,48.000000) scale(0.100000,-0.100000)"
fill="#c59d5f" stroke="none">
<path d="M197 451 c-14 -17 -30 -31 -36 -31 -17 0 -51 -51 -51 -77 0 -13 -10
-37 -21 -53 -17 -23 -20 -37 -15 -67 16 -101 22 -118 39 -121 21 -4 23 35 5
102 -10 39 -9 46 10 71 12 15 22 38 22 51 0 32 10 54 25 54 8 0 25 14 38 31
22 29 28 31 53 22 16 -6 43 -8 60 -6 18 3 35 0 38 -6 7 -10 -6 -13 -86 -15
-15 -1 -33 -9 -40 -19 -7 -10 -24 -23 -38 -30 -15 -8 -27 -24 -31 -45 -4 -18
-15 -42 -24 -52 -16 -17 -17 -25 -7 -59 25 -80 9 -151 -32 -151 -38 0 -60 49
-61 135 0 56 5 77 23 106 12 20 22 47 22 60 -1 23 -3 22 -34 -13 -71 -81 -75
-224 -8 -299 21 -23 38 -31 78 -36 45 -5 60 -1 115 27 77 38 202 131 225 165
19 29 13 80 -16 135 -10 19 -24 52 -30 73 -14 45 -46 68 -91 66 -19 -1 -50 1
-70 5 -32 7 -39 4 -62 -23z m186 -101 c14 -11 33 -43 42 -71 l17 -51 -28 -30
c-49 -51 -218 -158 -231 -145 -9 10 27 181 48 224 21 44 79 93 110 93 9 0 28
-9 42 -20z"/>
<path d="M304 229 c-10 -17 13 -36 27 -22 12 12 4 33 -11 33 -5 0 -12 -5 -16
-11z"/>
<path d="M244 209 c-10 -17 13 -36 27 -22 12 12 4 33 -11 33 -5 0 -12 -5 -16
-11z"/>
<path d="M284 169 c-10 -17 13 -36 27 -22 12 12 4 33 -11 33 -5 0 -12 -5 -16
-11z"/>
</g>
</svg>
