<?xml version="1.0" standalone="no"?>
<!DOCTYPE svg PUBLIC "-//W3C//DTD SVG 20010904//EN"
 "http://www.w3.org/TR/2001/REC-SVG-20010904/DTD/svg10.dtd">
<svg version="1.0" xmlns="http://www.w3.org/2000/svg"
 width="64.000000pt" height="64.000000pt" viewBox="0 0 64.000000 64.000000"
 preserveAspectRatio="xMidYMid meet">

<g transform="translate(0.000000,64.000000) scale(0.100000,-0.100000)"
fill="#c59d5f" stroke="none">
<path d="M43 465 c-8 -22 4 -99 23 -159 12 -36 35 -67 85 -117 l69 -69 100 0
100 0 69 69 c77 77 103 134 105 231 l1 55 -273 3 c-240 2 -273 0 -279 -13z
m517 -29 c0 -2 -3 -11 -6 -20 -5 -14 -36 -16 -235 -16 -126 0 -229 2 -229 4 0
2 -3 11 -6 20 -6 14 19 16 235 16 133 0 241 -2 241 -4z m-20 -101 c-20 -53
-40 -82 -89 -127 l-51 -48 -80 0 -80 0 -51 48 c-49 45 -69 74 -89 127 l-10 25
230 0 230 0 -10 -25z"/>
</g>
</svg>
